<?xml version="1.0" standalone="no"?>
<!DOCTYPE svg PUBLIC "-//W3C//DTD SVG 20010904//EN"
 "http://www.w3.org/TR/2001/REC-SVG-20010904/DTD/svg10.dtd">
<svg version="1.0" xmlns="http://www.w3.org/2000/svg"
 width="800.000000pt" height="800.000000pt" viewBox="0 0 800.000000 800.000000"
 preserveAspectRatio="xMidYMid meet">
<metadata>
Created by potrace 1.16, written by Peter Selinger 2001-2019
</metadata>
<g transform="translate(0.000000,800.000000) scale(0.100000,-0.100000)"
fill="#000000" stroke="none">
<path d="M0 7529 c0 -443 1 -470 18 -467 12 2 18 15 20 43 2 22 12 49 22 60
26 28 40 69 40 120 0 40 2 44 27 47 23 2 27 7 25 28 -4 22 -2 23 13 10 16 -13
17 -13 11 6 -3 12 -2 33 3 47 7 17 7 28 1 32 -19 12 -11 26 9 16 16 -9 18 -8
14 9 -6 23 6 26 26 8 11 -11 12 -10 5 2 -21 37 -12 84 16 77 21 -5 34 25 17
42 -7 7 -5 12 6 17 9 3 15 10 12 14 -3 4 4 10 15 13 14 4 18 10 13 23 -4 12
-3 15 5 10 8 -5 12 0 12 12 0 11 15 36 34 56 19 20 30 36 24 36 -5 0 -8 6 -5
13 2 6 10 11 16 10 6 -2 11 5 11 14 0 10 11 27 26 39 15 13 21 25 15 29 -6 3
-11 15 -11 26 0 11 5 17 10 14 6 -3 10 3 10 14 0 11 5 23 11 27 8 4 9 -6 5
-35 -3 -26 -2 -40 4 -36 6 3 10 26 10 51 l0 44 -245 0 -245 0 0 -471z"/>
<path d="M0 5024 c1 -216 4 -284 13 -281 7 2 13 13 15 25 2 16 10 22 28 22 15
0 24 6 24 15 0 8 5 15 10 15 14 0 12 37 -2 43 -9 4 -9 8 -3 14 6 4 11 17 13
28 3 21 30 47 41 41 3 -2 12 2 18 10 8 8 9 15 3 19 -18 11 -11 52 10 58 17 4
19 11 13 58 -6 48 -5 52 12 45 15 -5 16 -4 5 9 -7 8 -10 16 -6 16 3 1 10 2 15
3 5 0 13 4 17 9 14 13 24 7 25 -15 1 -17 2 -19 6 -5 2 9 9 17 14 17 5 0 9 5 9
11 0 7 -12 10 -30 7 -19 -3 -31 0 -35 10 -3 9 0 12 9 9 10 -4 13 -1 10 7 -3 7
10 26 28 41 l33 28 -44 -6 c-29 -4 -40 -2 -30 4 7 5 30 9 49 10 65 3 -69 17
-173 18 l-98 1 1 -286z"/>
<path d="M0 880 l0 -880 183 0 c133 0 187 3 196 13 11 9 13 9 7 0 -6 -10 165
-13 837 -13 825 0 845 0 850 19 3 14 1 18 -9 14 -8 -3 -14 0 -14 6 0 6 -7 11
-15 11 -8 0 -15 7 -15 17 0 9 -3 14 -6 10 -8 -7 -33 16 -28 25 3 4 -5 12 -16
18 -11 6 -20 17 -20 25 0 8 -9 15 -20 15 -11 0 -20 6 -20 14 0 9 -7 12 -18 9
-11 -2 -29 6 -45 23 -28 28 -35 54 -15 54 7 0 -2 10 -19 23 -18 12 -33 30 -33
40 0 10 -6 17 -12 16 -29 -3 -35 2 -33 31 1 22 -3 30 -14 30 -9 0 -21 10 -26
23 -7 15 -18 21 -34 19 -20 -2 -23 1 -19 23 3 14 1 25 -4 25 -13 0 -38 26 -38
39 0 6 -4 11 -9 11 -20 0 -41 33 -41 63 0 24 -3 28 -10 17 -5 -8 -10 -12 -10
-9 0 4 -19 -11 -42 -32 -25 -23 -46 -35 -51 -30 -5 5 -16 7 -25 4 -12 -5 -14
-1 -9 16 8 34 -2 55 -19 40 -11 -9 -19 -8 -34 6 -26 23 -26 38 0 30 18 -6 20
-2 20 34 0 32 -3 39 -15 35 -8 -4 -15 -11 -15 -18 0 -6 -5 -4 -10 4 -5 8 -10
10 -10 4 0 -18 12 -25 25 -14 9 8 13 4 13 -15 0 -19 -4 -23 -13 -15 -6 5 -15
7 -18 3 -4 -3 -10 2 -13 11 -5 14 -9 15 -16 4 -7 -9 -8 -7 -5 9 4 16 -1 24
-14 28 -19 6 -59 51 -59 66 0 5 7 9 16 9 14 0 14 3 4 16 -8 8 -9 14 -4 12 5
-2 9 0 9 3 0 4 9 17 20 30 l20 24 -20 -15 c-11 -8 -126 -118 -255 -245 -478
-470 -551 -540 -566 -543 -8 -2 -12 -7 -9 -12 3 -5 1 -12 -5 -15 -6 -4 -9 -1
-8 7 2 8 -4 12 -15 10 -14 -2 -16 2 -11 22 5 23 3 26 -19 26 -17 0 -28 7 -32
19 -3 11 -15 23 -26 26 -10 4 -19 15 -19 26 0 10 -4 19 -10 19 -5 0 -10 16
-10 35 0 19 -4 35 -10 35 -5 0 -10 7 -10 15 0 8 -3 14 -8 14 -33 -5 -41 2 -35
31 4 23 2 30 -10 30 -8 0 -18 7 -21 16 -7 19 12 47 25 38 5 -3 8 -1 7 4 -2 6
51 68 117 139 66 70 142 152 169 181 27 29 42 50 33 46 -9 -3 -17 -10 -17 -15
0 -5 -5 -9 -11 -9 -5 0 -7 5 -4 10 3 6 -1 10 -9 10 -11 0 -16 9 -16 29 0 18
-8 34 -20 42 -12 8 -23 30 -27 54 -4 27 -18 51 -45 78 -21 21 -35 44 -31 50 4
6 8 25 9 42 1 16 0 22 -3 13 -2 -10 -8 -18 -11 -18 -11 0 -34 71 -36 108 -1
28 -3 30 -13 15 -7 -9 -14 -15 -15 -12 -27 44 -29 52 -16 61 9 6 5 7 -11 3
-19 -6 -23 -4 -18 9 3 8 2 18 -3 21 -6 4 -10 18 -10 32 0 18 -4 24 -15 20 -19
-8 -29 10 -27 48 2 25 -3 34 -23 43 -14 6 -25 19 -25 28 0 10 -8 26 -17 36
-10 11 -17 34 -16 53 1 19 -3 32 -8 29 -5 -3 -9 4 -9 15 0 13 7 21 17 21 14 0
15 2 4 13 -10 10 -14 9 -22 -5 -14 -26 -29 -22 -29 6 0 13 -4 26 -10 28 -5 2
-11 24 -12 50 -2 25 -6 44 -11 41 -4 -2 -4 -9 -1 -15 5 -7 2 -8 -5 -3 -7 4
-11 16 -8 26 3 11 1 19 -4 19 -5 0 -9 -361 -9 -880z"/>
</g>
</svg>
